<svg width="120" height="120" viewBox="0 0 120 120" fill="none" xmlns="http://www.w3.org/2000/svg">
  <defs>
    <linearGradient id="paint0" x1="20" y1="20" x2="100" y2="108" gradientUnits="userSpaceOnUse">
      <stop stop-color="#7C5CFF" />
      <stop offset="1" stop-color="#36E7FF" />
    </linearGradient>
    <radialGradient id="glow" cx="0" cy="0" r="1" gradientUnits="userSpaceOnUse" gradientTransform="translate(60 60) rotate(90) scale(60)">
      <stop stop-color="#1F2E66" stop-opacity="0.9" />
      <stop offset="1" stop-color="#0B0E27" stop-opacity="0.2" />
    </radialGradient>
  </defs>
  <rect width="120" height="120" rx="36" fill="url(#glow)" />
  <path
    d="M60.0002 95C78.225 95 93.0002 80.2249 93.0002 62.0001C93.0002 43.7753 78.225 29.0002 60.0002 29.0002C41.7754 29.0002 27.0002 43.7753 27.0002 62.0001C27.0002 80.2249 41.7754 95 60.0002 95Z"
    fill="url(#paint0)"
  />
  <path
    d="M82.5 63c0 12.426-10.074 22.5-22.5 22.5S37.5 75.426 37.5 63 47.574 40.5 60 40.5 82.5 50.574 82.5 63ZM60 45c-6.69 0-12.12 7.512-13.92 17.5h27.84C72.12 52.512 66.69 45 60 45Zm-13.92 21.5C47.88 76.488 53.31 84 60 84s12.12-7.512 13.92-17.5H46.08Z"
    fill="#0B1026"
    opacity="0.85"
  />
  <circle cx="60" cy="63" r="7" fill="#F4F6FF" />
</svg>
